<?xml version="1.0" standalone="no"?>
<!DOCTYPE svg PUBLIC "-//W3C//DTD SVG 20010904//EN"
 "http://www.w3.org/TR/2001/REC-SVG-20010904/DTD/svg10.dtd">
<svg version="1.0" xmlns="http://www.w3.org/2000/svg"
 width="225.000000pt" height="225.000000pt" viewBox="0 0 225.000000 225.000000"
 preserveAspectRatio="xMidYMid meet">

<g transform="translate(0.000000,225.000000) scale(0.100000,-0.100000)"
fill="#000000" stroke="none">
<path d="M1393 1966 c-17 -8 -39 -26 -48 -40 -17 -25 -18 -25 -48 -9 -52 27
-145 22 -200 -11 -26 -15 -54 -37 -62 -50 -14 -22 -19 -23 -55 -14 -26 7 -49
7 -68 0 -27 -9 -33 -7 -68 29 -95 98 -252 81 -323 -34 -19 -30 -27 -35 -75
-40 -89 -9 -152 -54 -188 -134 l-19 -43 -63 0 c-86 0 -93 -9 -76 -103 11 -62
30 -128 55 -189 6 -15 2 -18 -22 -18 -18 0 -41 -10 -58 -26 l-28 -26 6 -101
c10 -164 70 -355 159 -503 57 -95 157 -222 219 -278 91 -82 86 -81 684 -81
609 0 594 -2 695 92 192 177 339 474 369 747 14 122 -10 176 -79 176 -17 0
-21 4 -15 18 20 52 47 177 52 248 5 76 4 83 -15 93 -31 17 -157 41 -213 41
-27 0 -49 4 -49 10 0 18 -63 81 -99 99 -20 10 -54 22 -77 25 -33 6 -44 13 -57
41 -26 54 -80 88 -145 92 -35 2 -69 -2 -89 -11z m135 -92 c12 -8 27 -34 33
-60 12 -48 15 -49 100 -57 41 -4 106 -34 95 -44 -2 -2 -30 -10 -63 -18 -124
-29 -252 -106 -321 -194 l-38 -47 -43 48 c-23 27 -63 60 -87 74 -35 21 -44 31
-44 53 0 39 -19 90 -46 127 l-23 31 22 20 c53 48 108 56 172 23 56 -28 81 -26
100 10 8 16 23 34 32 39 27 16 86 13 111 -5z m-762 -49 c14 -9 35 -32 46 -52
19 -31 24 -34 52 -28 78 16 94 16 129 1 39 -16 77 -67 77 -103 0 -21 -5 -23
-55 -23 -105 0 -207 -52 -272 -140 l-36 -49 -41 35 c-56 48 -168 101 -260 122
-42 9 -76 21 -76 25 0 18 43 68 71 83 16 8 59 18 95 21 68 6 73 10 89 58 15
44 71 78 118 72 21 -3 49 -13 63 -22z m1184 -205 c97 -16 100 -18 100 -51 0
-42 -29 -165 -51 -216 l-18 -43 -132 0 -132 0 24 26 c13 14 48 40 77 56 45 26
53 35 50 56 -5 42 -31 50 -84 24 -66 -33 -111 -69 -145 -119 l-30 -43 -114 0
c-113 0 -115 0 -115 23 0 56 115 184 207 230 113 58 235 77 363 57z m-811
-111 c28 -12 65 -38 83 -57 35 -41 72 -117 63 -132 -4 -6 -104 -10 -262 -10
l-256 0 6 34 c7 46 50 109 97 141 84 58 172 66 269 24z m-741 -9 c103 -29 181
-71 230 -124 23 -25 42 -50 42 -56 0 -6 -31 -10 -77 -10 l-76 0 -73 70 c-39
39 -77 70 -83 70 -14 0 -51 -36 -51 -50 0 -5 16 -28 36 -50 l36 -40 -61 0
c-60 0 -61 0 -80 38 -19 36 -51 146 -51 172 0 18 112 7 208 -20z m1698 -337
c-4 -32 -11 -82 -17 -110 l-10 -53 -954 0 -953 0 -12 73 c-6 39 -13 89 -16
110 l-6 37 987 0 987 0 -6 -57z m-61 -275 c-4 -13 -26 -64 -50 -114 -48 -99
-131 -217 -216 -306 -90 -94 -85 -93 -654 -93 -574 0 -559 -2 -656 100 -34 35
-81 90 -105 122 -47 62 -125 206 -149 273 l-14 40 925 0 925 0 -6 -22z"/>
</g>
</svg>
