<?xml version="1.0" standalone="no"?>
<!DOCTYPE svg PUBLIC "-//W3C//DTD SVG 20010904//EN"
 "http://www.w3.org/TR/2001/REC-SVG-20010904/DTD/svg10.dtd">
<svg version="1.0" xmlns="http://www.w3.org/2000/svg"
 width="301.000000pt" height="167.000000pt" viewBox="0 0 301.000000 167.000000"
 preserveAspectRatio="xMidYMid meet">

<g transform="translate(0.000000,167.000000) scale(0.100000,-0.100000)"
fill="#000000" stroke="none">
<path d="M1772 1659 c-19 -5 -54 -31 -78 -56 l-44 -45 -340 17 c-332 17 -340
17 -372 -2 -22 -13 -38 -33 -48 -61 -13 -37 -12 -45 3 -76 9 -19 28 -43 42
-52 30 -20 94 -20 480 0 l240 12 38 -42 c48 -54 89 -68 186 -62 160 11 267
104 246 215 -9 49 -78 116 -141 136 -64 21 -170 29 -212 16z"/>
<path d="M924 1335 c-15 -37 2 -45 96 -45 l90 0 0 -50 0 -49 -92 -3 c-92 -3
-93 -3 -93 -28 0 -25 1 -25 93 -28 l92 -3 0 -49 0 -49 -92 -3 c-92 -3 -93 -3
-93 -28 l0 -25 130 -3 c118 -2 134 0 175 20 25 13 54 38 65 56 19 31 22 32 75
27 123 -11 620 -27 645 -21 67 17 96 102 58 167 -30 50 -48 53 -326 40 -138
-6 -292 -14 -342 -17 l-90 -6 -22 35 c-38 60 -89 77 -236 77 -104 0 -129 -3
-133 -15z m329 -124 c28 -40 30 -41 75 -37 95 10 660 29 676 23 25 -10 30 -34
12 -63 -16 -23 -21 -25 -79 -20 -34 3 -138 8 -232 12 -93 3 -181 8 -195 10
-14 1 -72 3 -130 4 -89 2 -106 -1 -115 -15 -21 -35 -47 -65 -66 -75 -18 -10
-19 -6 -19 111 l0 121 23 -14 c12 -8 35 -34 50 -57z"/>
<path d="M954 881 c-70 -32 -89 -68 -131 -243 -35 -148 -38 -158 -60 -158 -13
0 -26 -7 -29 -15 -8 -19 13 -45 36 -45 13 0 23 -28 50 -142 39 -170 57 -209
112 -245 l42 -28 531 0 531 0 42 28 c55 36 73 75 112 245 27 114 37 142 50
142 23 0 44 26 36 45 -3 8 -16 15 -29 15 -22 0 -25 10 -60 158 -42 175 -61
211 -131 243 -38 17 -76 19 -551 19 -475 0 -513 -2 -551 -19z m1071 -55 c48
-21 64 -52 97 -189 16 -67 31 -130 34 -139 5 -17 -30 -18 -650 -18 -361 0
-656 2 -656 4 0 3 4 16 10 30 l10 26 504 0 c456 0 504 2 510 16 17 43 10 44
-510 44 l-494 0 6 28 c33 146 48 176 97 197 48 21 992 21 1042 1z m-749 -444
c11 -98 55 -122 229 -122 175 0 211 19 230 123 l7 37 209 0 c162 0 207 -3 204
-12 -2 -7 -16 -67 -31 -133 -30 -137 -44 -168 -81 -192 -25 -17 -67 -18 -538
-18 -484 0 -511 1 -538 19 -39 26 -50 53 -81 191 -15 66 -29 126 -31 133 -4
10 40 12 207 10 l211 -3 3 -33z"/>
<path d="M1954 586 c-10 -26 4 -48 28 -44 17 2 23 10 23 28 0 18 -6 26 -23 28
-13 2 -25 -3 -28 -12z"/>
</g>
</svg>
