<?xml version="1.0" standalone="no"?>
<!DOCTYPE svg PUBLIC "-//W3C//DTD SVG 20010904//EN"
 "http://www.w3.org/TR/2001/REC-SVG-20010904/DTD/svg10.dtd">
<svg version="1.0" xmlns="http://www.w3.org/2000/svg"
 width="250.000000pt" height="313.000000pt" viewBox="0 0 287.000000 313.000000"
 preserveAspectRatio="xMidYMid meet">

<g transform="translate(0.000000,313.000000) scale(0.100000,-0.100000)"
fill="#000000" stroke="none">
<path d="M1330 2830 c-190 -22 -343 -100 -495 -254 -101 -102 -160 -193 -202
-312 -26 -74 -28 -89 -28 -249 0 -149 3 -180 24 -253 40 -141 173 -397 490
-942 40 -69 84 -145 98 -170 14 -25 33 -56 42 -70 9 -14 23 -37 30 -52 28 -55
136 -222 147 -225 6 -2 23 18 38 44 15 27 46 80 70 118 49 80 142 238 178 305
14 25 39 69 57 98 17 29 31 54 31 56 0 2 17 33 38 67 21 35 52 89 69 119 17
30 73 129 124 220 93 166 180 355 200 433 30 123 38 178 34 272 -11 307 -198
583 -488 720 -135 64 -304 92 -457 75z m255 -206 c125 -33 240 -106 328 -212
108 -129 157 -257 157 -410 0 -283 -164 -515 -438 -621 -61 -23 -80 -25 -207
-25 -126 0 -147 2 -213 26 -132 48 -252 139 -328 248 -175 252 -147 590 66
810 174 180 397 245 635 184z"/>
<path d="M1123 2384 c-56 -28 -95 -141 -79 -229 4 -20 22 -53 42 -74 l34 -38
1 -194 c0 -217 6 -267 32 -283 15 -9 21 -7 33 8 11 16 14 64 14 244 l0 224 26
21 c51 39 67 125 43 222 -10 39 -60 105 -79 105 -5 0 -14 2 -22 5 -7 2 -27 -3
-45 -11z"/>
<path d="M1353 2392 c-16 -10 -23 -147 -13 -231 8 -65 23 -90 56 -95 28 -4 32
-33 33 -256 1 -214 5 -250 26 -250 33 0 38 30 42 258 l5 227 31 27 32 27 3
123 c4 135 -7 190 -33 168 -11 -9 -15 -34 -15 -96 0 -50 -4 -86 -11 -90 -20
-12 -29 19 -29 103 0 45 -4 84 -8 87 -21 13 -34 -17 -41 -98 -5 -48 -11 -89
-14 -92 -17 -17 -27 15 -27 85 0 79 -14 118 -37 103z"/>
<path d="M1698 2393 c-26 -7 -30 -77 -26 -455 2 -275 6 -348 17 -362 29 -35
38 -1 44 181 6 164 8 179 29 207 22 30 23 38 23 219 0 175 -1 190 -19 203 -20
14 -36 16 -68 7z"/>
</g>
</svg>
