<?xml version="1.0" standalone="no"?>
<!DOCTYPE svg PUBLIC "-//W3C//DTD SVG 20010904//EN"
 "http://www.w3.org/TR/2001/REC-SVG-20010904/DTD/svg10.dtd">
<svg version="1.0" xmlns="http://www.w3.org/2000/svg"
 width="397.000000pt" height="225.000000pt" viewBox="0 0 397.000000 225.000000"
 preserveAspectRatio="xMidYMid meet">

<g transform="translate(0.000000,225.000000) scale(0.100000,-0.100000)"
fill="#000000" stroke="none">
<path d="M2657 2244 c-26 -26 9 -70 49 -60 20 5 25 12 22 34 -2 22 -9 28 -33
30 -17 2 -34 0 -38 -4z"/>
<path d="M2807 2163 c-4 -3 -7 -17 -7 -29 0 -27 31 -40 60 -24 21 11 24 19 14
44 -6 16 -54 22 -67 9z"/>
<path d="M1417 2110 c-55 -10 -108 -41 -162 -97 -57 -58 -78 -114 -79 -208 -1
-70 3 -88 30 -146 32 -67 81 -117 154 -155 47 -24 220 -26 265 -2 58 31 124
98 151 156 23 48 28 70 28 147 1 76 -3 97 -22 133 -33 62 -96 127 -146 152
-50 24 -149 33 -219 20z m191 -89 c51 -26 108 -91 121 -138 28 -99 3 -204 -61
-258 -117 -99 -238 -98 -348 2 -72 64 -94 139 -69 236 38 150 217 229 357 158z"/>
<path d="M2654 2085 c-11 -28 4 -45 41 -45 32 0 35 2 35 30 0 28 -3 30 -35 30
-22 0 -38 -6 -41 -15z"/>
<path d="M2964 2092 c-18 -12 -23 -50 -8 -62 7 -7 22 -9 34 -5 27 9 30 75 3
75 -10 0 -23 -4 -29 -8z"/>
<path d="M2800 1990 c0 -30 2 -31 38 -28 32 3 37 6 37 28 0 22 -5 25 -37 28
-36 3 -38 2 -38 -28z"/>
<path d="M2950 1940 c-17 -33 -3 -60 31 -60 26 0 29 3 29 34 0 22 -6 36 -16
40 -25 10 -33 7 -44 -14z"/>
<path d="M2535 1868 c-2 -7 -5 -21 -7 -32 -2 -13 -25 -26 -85 -45 -85 -29
-135 -62 -197 -132 -41 -45 -96 -151 -96 -186 0 -27 -25 -53 -51 -53 -14 0
-19 -7 -19 -30 l0 -30 480 0 480 0 0 23 c0 14 -11 32 -28 44 -17 12 -33 38
-41 64 -37 124 -115 220 -224 274 -38 19 -76 35 -83 35 -31 0 -62 24 -68 51
-4 23 -11 29 -31 29 -14 0 -27 -6 -30 -12z m167 -159 c24 -12 71 -49 105 -81
50 -48 66 -72 82 -121 12 -33 21 -66 21 -71 0 -17 -675 -5 -692 11 -9 10 -7
23 11 60 54 113 141 192 240 220 64 18 180 9 233 -18z"/>
<path d="M2947 1796 c-13 -33 16 -62 49 -49 9 3 14 15 12 32 -2 20 -9 27 -29
29 -17 2 -29 -3 -32 -12z"/>
<path d="M1280 1326 c0 -158 1 -159 84 -133 94 29 138 31 220 8 42 -12 83 -21
91 -21 13 0 15 23 15 140 0 77 -2 140 -5 140 -3 0 -48 -12 -100 -26 l-95 -27
-82 22 c-46 11 -93 24 -105 27 l-23 6 0 -136z m340 -12 c0 -43 -2 -46 -23 -40
-106 26 -128 28 -174 12 -63 -22 -63 -22 -63 24 l0 40 88 -6 c48 -3 101 -1
117 5 52 16 55 14 55 -35z"/>
<path d="M1075 1341 c-22 -10 -56 -33 -74 -52 -65 -64 -65 -68 -69 -451 l-4
-348 101 0 101 0 0 -239 0 -238 83 -6 c45 -4 241 -7 434 -7 l353 0 2 449 3
450 125 -109 c69 -60 128 -109 131 -107 4 1 130 139 281 307 l275 305 -166 7
-166 6 -115 -114 -115 -114 -90 91 c-106 106 -121 117 -142 96 -21 -21 -11
-35 121 -167 l116 -115 129 129 128 128 72 -8 71 -9 -169 -185 c-92 -102 -184
-200 -204 -219 -44 -41 -31 -48 -216 118 -73 67 -137 121 -142 121 -5 0 -9
-218 -9 -495 l0 -495 -360 0 -360 0 0 210 0 210 30 0 30 0 0 -165 0 -165 225
0 225 0 0 164 0 164 84 7 83 7 7 45 c3 25 6 85 6 133 l0 88 -84 3 c-62 3 -89
9 -103 22 -17 15 -43 17 -220 17 -187 0 -201 -1 -223 -20 -45 -39 -55 -25 -58
82 -2 86 -5 99 -23 109 -44 23 -49 9 -49 -136 l0 -135 64 0 64 0 4 -75 3 -75
-134 0 -134 0 5 320 4 320 28 29 c16 16 50 39 77 51 39 16 49 25 49 44 0 21
-17 36 -38 36 -4 0 -25 -9 -47 -19z m453 -601 l102 0 0 -255 0 -255 -140 0
-140 0 0 261 0 262 38 -7 c20 -3 83 -6 140 -6z m282 -105 l0 -75 -52 0 -53 0
2 67 c1 38 2 71 2 76 1 4 24 7 51 7 l50 0 0 -75z"/>
</g>
</svg>
