<?xml version="1.0" standalone="no"?>
<!DOCTYPE svg PUBLIC "-//W3C//DTD SVG 20010904//EN"
 "http://www.w3.org/TR/2001/REC-SVG-20010904/DTD/svg10.dtd">
<svg version="1.0" xmlns="http://www.w3.org/2000/svg"
 width="225.000000pt" height="225.000000pt" viewBox="0 0 225.000000 225.000000"
 preserveAspectRatio="xMidYMid meet">

<g transform="translate(0.000000,225.000000) scale(0.100000,-0.100000)"
fill="#000000" stroke="none">
<path d="M219 2011 c-50 -16 -71 -33 -90 -74 -18 -40 -19 -78 -19 -812 0 -735
1 -772 19 -812 38 -82 3 -78 716 -78 600 0 632 1 661 19 68 41 64 -10 64 871
0 881 4 830 -64 871 -29 18 -63 19 -646 21 -338 1 -627 -2 -641 -6z m1263 -88
c17 -15 18 -53 18 -796 0 -712 -1 -782 -17 -799 -15 -17 -48 -18 -638 -18
-521 0 -624 2 -641 14 -19 14 -19 34 -19 801 0 767 0 787 19 801 17 12 120 14
640 14 562 0 621 -2 638 -17z"/>
<path d="M415 1858 c-108 -39 -163 -149 -131 -260 26 -91 104 -148 201 -148
102 0 184 66 206 166 12 55 14 46 -37 188 -15 41 -18 44 -62 50 -96 14 -148
15 -177 4z m114 -67 c11 -7 7 -18 -19 -56 -23 -34 -35 -44 -43 -36 -17 17 -57
13 -64 -5 -8 -22 6 -44 47 -71 41 -28 54 -22 104 51 21 31 42 56 46 56 5 0 14
-15 20 -34 38 -117 -101 -221 -207 -156 -67 40 -87 110 -51 179 33 65 120 102
167 72z"/>
<path d="M781 1766 c-7 -8 -10 -24 -6 -36 6 -19 14 -20 181 -20 152 0 175 2
181 16 3 9 2 24 -4 33 -15 23 -334 29 -352 7z"/>
<path d="M786 1647 c-10 -7 -16 -22 -14 -33 3 -18 13 -19 183 -19 170 0 180 1
183 19 8 38 -23 46 -183 46 -109 0 -156 -4 -169 -13z"/>
<path d="M1340 1591 c-5 -11 -10 -31 -10 -45 l0 -26 -282 0 c-156 0 -289 -4
-296 -9 -8 -4 -12 -19 -10 -32 l3 -24 323 -3 322 -2 10 26 c23 59 6 134 -30
134 -11 0 -24 -9 -30 -19z"/>
<path d="M1133 1356 c-62 -20 -99 -51 -127 -108 -44 -88 -31 -174 37 -242 87
-86 214 -86 301 0 61 62 76 166 35 245 -12 24 -23 52 -24 62 -2 23 -25 38 -47
31 -10 -3 -25 -1 -35 4 -33 18 -98 21 -140 8z m111 -74 c6 -10 -51 -92 -63
-92 -4 0 -12 5 -18 11 -18 18 -53 1 -53 -25 0 -25 57 -76 84 -76 8 0 38 30 65
66 45 60 51 64 60 45 6 -11 11 -40 11 -65 0 -108 -129 -171 -220 -106 -32 23
-60 76 -60 115 0 36 35 97 68 118 28 17 117 23 126 9z"/>
<path d="M543 1254 c-3 -9 -2 -24 4 -33 9 -13 36 -16 176 -19 160 -2 166 -2
177 18 24 44 2 50 -182 50 -147 0 -169 -2 -175 -16z"/>
<path d="M547 1143 c-13 -12 -7 -51 9 -57 9 -3 87 -6 174 -6 151 0 160 1 170
21 24 43 2 49 -180 49 -91 0 -170 -3 -173 -7z"/>
<path d="M276 1085 c-11 -28 -7 -120 6 -133 9 -9 95 -12 324 -12 330 0 341 1
332 47 -3 17 -24 18 -300 21 l-297 2 -3 43 c-3 37 -6 42 -29 45 -17 2 -29 -3
-33 -13z"/>
<path d="M417 850 c-68 -21 -125 -89 -142 -168 -17 -78 37 -182 116 -222 51
-27 137 -27 188 0 91 46 139 156 107 244 -52 146 -44 134 -89 139 -103 14
-154 16 -180 7z m112 -69 c12 -8 10 -17 -14 -51 -33 -47 -41 -54 -50 -40 -10
16 -55 12 -62 -6 -8 -22 6 -44 47 -71 41 -28 55 -21 105 52 21 30 42 55 46 55
4 0 13 -15 19 -34 38 -117 -101 -221 -207 -156 -67 40 -87 110 -51 179 34 65
120 102 167 72z"/>
<path d="M780 755 c-6 -8 -9 -23 -5 -35 6 -19 14 -20 180 -20 166 0 174 1 180
20 14 44 -6 50 -180 50 -130 0 -165 -3 -175 -15z"/>
<path d="M786 637 c-10 -7 -16 -22 -14 -33 3 -18 13 -19 183 -19 170 0 180 1
183 19 8 38 -23 46 -183 46 -109 0 -156 -4 -169 -13z"/>
<path d="M1340 581 c-5 -11 -10 -31 -10 -45 l0 -26 -286 -2 c-251 -3 -288 -5
-297 -19 -6 -9 -7 -24 -4 -33 6 -14 39 -16 327 -16 l320 0 10 26 c23 59 6 134
-30 134 -11 0 -24 -9 -30 -19z"/>
<path d="M1794 1939 c-40 -11 -90 -67 -103 -116 -7 -25 -11 -254 -11 -651 l0
-612 65 -105 c36 -58 65 -116 65 -129 0 -56 61 -61 71 -6 3 19 33 79 67 132
l62 97 0 391 0 390 30 0 29 0 3 -137 c3 -123 5 -138 21 -141 44 -9 47 8 47
240 0 222 -4 248 -39 275 -9 7 -33 13 -53 13 l-36 0 -4 133 c-3 121 -5 135
-27 166 -26 36 -91 71 -131 70 -14 0 -39 -5 -56 -10z m96 -74 c16 -8 34 -24
40 -34 5 -11 10 -72 10 -136 l0 -116 -92 3 -93 3 0 116 c0 103 2 120 20 139
36 40 71 48 115 25z m50 -379 c0 -30 23 -50 50 -41 14 4 20 15 20 36 0 27 3
30 28 27 25 -3 27 -6 27 -53 l0 -50 -155 0 -155 0 -3 53 -3 52 95 0 c94 0 96
0 96 -24z m0 -521 l0 -365 -95 0 -95 0 0 365 0 365 95 0 95 0 0 -365z m-41
-457 c-7 -13 -21 -36 -32 -51 l-19 -29 -29 44 c-16 24 -29 46 -29 51 0 4 27 7
60 7 60 0 61 0 49 -22z"/>
</g>
</svg>
